SplineFontDB: 3.2
FontName: UFTrezoro
FullName: UF Trezoro
FamilyName: UF Trezoro
Weight: Regular
Copyright: Copyright (c) 2021 ura
UComments: "Created with FontForge (http://fontforge.org)"
Version: 1.000
ItalicAngle: 0
UnderlinePosition: -102
UnderlineWidth: 51
Ascent: 819
Descent: 205
InvalidEm: 0
LayerCount: 2
Layer: 0 1 "+gMyXYgAA" 1
Layer: 1 1 "+Uk2XYgAA" 0
XUID: [1021 441 -436763822 5018]
StyleMap: 0x0000
FSType: 0
OS2Version: 0
OS2_WeightWidthSlopeOnly: 0
OS2_UseTypoMetrics: 1
CreationTime: 1638943778
ModificationTime: 1639814535
OS2TypoAscent: 0
OS2TypoAOffset: 1
OS2TypoDescent: 0
OS2TypoDOffset: 1
OS2TypoLinegap: 92
OS2WinAscent: 0
OS2WinAOffset: 1
OS2WinDescent: 0
OS2WinDOffset: 1
HheadAscent: 0
HheadAOffset: 1
HheadDescent: 0
HheadDOffset: 1
OS2Vendor: 'PfEd'
Lookup: 4 0 1 "'liga' +ahluljBuVAhbVwAA in +MOkwxjDzZYdbVwAA lookup 0" { "'liga' +ahluljBuVAhbVwAA in +MOkwxjDzZYdbVwAA lookup 0-1"  } ['liga' ('DFLT' <'dflt' > 'latn' <'dflt' > ) ]
MarkAttachClasses: 1
DEI: 91125

StartChar: A
Encoding: 65 65 0
Width: 808
Flags: W
LayerCount: 2
Fore
SplineSet
527 605 m 1,0,-1
 232 605 l 1,1,-1
 232 460.025644568 l 1,2,3
 300.705983732 487 300.705983732 487 382 487 c 0,4,5
 468.503990484 487 468.503990484 487 527 464.367288107 c 1,6,-1
 527 605 l 1,0,-1
383 218 m 0,7,8
 454 218 454 218 492 246 c 0,9,10
 527 274 527 274 527 328 c 2,11,-1
 527 333.96055515 l 2,12,13
 526.054054054 385.297297297 526.054054054 385.297297297 492 408 c 0,14,15
 450 436 450 436 382 437 c 0,16,17
 305 436 305 436 267 408 c 0,18,19
 232 380 232 380 232 328 c 0,20,21
 232 270 232 270 268 246 c 0,22,23
 310 218 310 218 383 218 c 0,7,8
528.391951027 195.349306817 m 1,24,25
 460.077480437 168 460.077480437 168 379 168 c 0,26,27
 301.427335623 168 301.427335623 168 232 196.195368767 c 1,28,-1
 232 114 l 2,29,30
 232 67 232 67 256 54.5 c 128,-1,31
 280 42 280 42 314 42 c 2,32,-1
 327 42 l 1,33,-1
 327 0 l 1,34,-1
 36 0 l 1,35,-1
 36 42 l 1,36,-1
 49 42 l 2,37,38
 83 42 83 42 107 54.5 c 128,-1,39
 131 67 131 67 131 114 c 2,40,-1
 131 327.5 l 1,41,-1
 131 545 l 2,42,43
 131 589 131 589 106.5 601 c 128,-1,44
 82 613 82 613 49 613 c 2,45,-1
 36 613 l 1,46,-1
 36 655 l 1,47,-1
 723 655 l 1,48,-1
 723 613 l 1,49,-1
 710 613 l 2,50,51
 676 613 676 613 652 600.5 c 128,-1,52
 628 588 628 588 628 541 c 2,53,-1
 628 327 l 1,54,-1
 628 231 l 2,55,56
 628 160 628 160 644 120 c 128,-1,57
 660 80 660 80 690 63.5 c 128,-1,58
 720 47 720 47 763 47 c 2,59,-1
 772 47 l 1,60,-1
 772 0 l 1,61,-1
 755 0 l 2,62,63
 691 0 691 0 639.5 20.5 c 128,-1,64
 588 41 588 41 557.5 91.5 c 0,65,66
 533.515712265 131.211689529 533.515712265 131.211689529 528.391951027 195.349306817 c 1,24,25
EndSplineSet
EndChar

StartChar: B
Encoding: 66 66 1
Width: 672
Flags: W
HStem: 0 29<241.07 431.448> 137 124<301.017 380.467> 368 29<241.544 431.622>
VStem: 50 101<108.908 288.821> 284 114<151.442 247.073> 521 101<111.102 286.282>
LayerCount: 2
Fore
SplineSet
337 48 m 128,-1,1
 436 48 436 48 476 87 c 0,2,3
 516 127 516 127 516 197 c 0,4,5
 516 268 516 268 476 307 c 128,-1,6
 436 346 436 346 337 346 c 128,-1,7
 238 346 238 346 197 307 c 128,-1,8
 156 268 156 268 156 197 c 0,9,10
 156 127 156 127 197 87 c 0,11,0
 238 48 238 48 337 48 c 128,-1,1
336 0 m 0,12,13
 240 0 240 0 176.5 25 c 128,-1,14
 113 50 113 50 81.5 94.5 c 128,-1,15
 50 139 50 139 50 199 c 128,-1,16
 50 259 50 259 81.5 303.5 c 128,-1,17
 113 348 113 348 177 372.5 c 0,18,19
 196.512711317 379.969709801 196.512711317 379.969709801 219 385.162008806 c 1,20,-1
 219 560 l 2,21,22
 219 595 219 595 199 605 c 0,23,24
 181 615 181 615 153 615 c 2,25,-1
 143 615 l 1,26,-1
 143 655 l 1,27,-1
 357 655 l 2,28,29
 459 655 459 655 512 618 c 0,30,31
 563 582 563 582 563 507 c 0,32,33
 563 453 563 453 534.5 423.5 c 0,34,35
 506.395665561 394.409548563 506.395665561 394.409548563 465.163570221 381.364138229 c 1,36,37
 479.127886801 377.427605834 479.127886801 377.427605834 492 372.5 c 0,38,39
 556 348 556 348 589 303.5 c 128,-1,40
 622 259 622 259 622 199 c 128,-1,41
 622 139 622 139 589 94.5 c 128,-1,42
 556 50 556 50 492 25 c 128,-1,43
 428 0 428 0 336 0 c 0,12,13
336 137 m 0,44,45
 312 137 312 137 295.5 151 c 128,-1,46
 279 165 279 165 279 199 c 0,47,48
 279 234 279 234 295.5 247.5 c 128,-1,49
 312 261 312 261 336 261 c 0,50,51
 359 261 359 261 376 247.5 c 128,-1,52
 393 234 393 234 393 199 c 0,53,54
 393 165 393 165 376 151 c 128,-1,55
 359 137 359 137 336 137 c 0,44,45
337 397 m 1,56,-1
 355 397 l 2,57,58
 425 397 425 397 451 421.5 c 128,-1,59
 477 446 477 446 477 504 c 0,60,61
 477 564 477 564 449 586 c 128,-1,62
 421 608 421 608 353 608 c 2,63,-1
 300 608 l 1,64,-1
 300 397 l 1,65,-1
 337 397 l 1,56,-1
EndSplineSet
EndChar

StartChar: O
Encoding: 79 79 2
Width: 628
VWidth: 1000
Flags: W
LayerCount: 2
Fore
SplineSet
358 266 m 0,0,1
 334 266 334 266 317.5 280 c 128,-1,2
 301 294 301 294 301 328 c 0,3,4
 301 363 301 363 317.5 376.5 c 128,-1,5
 334 390 334 390 358 390 c 0,6,7
 381 390 381 390 398 376.5 c 128,-1,8
 415 363 415 363 415 328 c 0,9,10
 415 294 415 294 398 280 c 128,-1,11
 381 266 381 266 358 266 c 0,0,1
245 96 m 0,12,13
 292 56 292 56 368 56 c 0,14,15
 430 56 430 56 447.5 60.5 c 128,-1,16
 465 65 465 65 500 85 c 1,17,18
 506 83 506 83 510 77 c 128,-1,19
 514 71 514 71 514 63 c 0,20,21
 514 47 514 47 497 32 c 128,-1,22
 480 17 480 17 444 7 c 0,23,24
 423 0 423 0 355 0 c 0,25,26
 248 0 248 0 180 40 c 0,27,28
 108 82 108 82 72 156 c 128,-1,29
 36 230 36 230 36 329 c 0,30,31
 36 423 36 423 74.5 497.5 c 128,-1,32
 113 572 113 572 187 613.5 c 128,-1,33
 261 655 261 655 372 655 c 0,34,35
 472 656 472 656 536 620 c 0,36,37
 592 588 592 588 592 545 c 0,38,39
 592 516 592 516 566 499 c 128,-1,40
 540 482 540 482 501 482 c 1,41,42
 502 512 502 512 490 536 c 0,43,44
 474 566 474 566 449 582 c 0,45,46
 406 608 406 608 370 608 c 0,47,48
 252 608 252 608 202 534 c 128,-1,49
 152 460 152 460 152 329 c 0,50,51
 152 248 152 248 173 190 c 0,52,53
 192 138 192 138 245 96 c 0,12,13
EndSplineSet
EndChar

StartChar: N
Encoding: 78 78 3
Width: 822
VWidth: 1000
Flags: W
LayerCount: 2
Fore
SplineSet
151 50 m 1,0,-1
 446 50 l 1,1,-1
 345 400 l 2,2,3
 334 434 334 434 322 474 c 0,4,5
 311 509 311 509 305 541 c 1,6,7
 291 489 291 489 291 479 c 0,8,9
 291 478 291 478 268 408 c 2,10,-1
 151 50 l 1,0,-1
551 50 m 1,11,-1
 650 50 l 2,12,13
 680 50 680 50 698 64 c 0,14,15
 718 80 718 80 726 98 c 0,16,17
 736 122 736 122 738 140 c 2,18,-1
 748 215 l 1,19,-1
 800 215 l 1,20,-1
 793 0 l 1,21,-1
 22 0 l 1,22,-1
 22 50 l 1,23,-1
 42 50 l 2,24,25
 74 50 74 50 85 64 c 0,26,27
 97 76 97 76 111 119 c 2,28,-1
 291 655 l 1,29,-1
 353 655 l 1,30,-1
 551 50 l 1,11,-1
EndSplineSet
EndChar

StartChar: M
Encoding: 77 77 4
Width: 976
VWidth: 1000
Flags: W
LayerCount: 2
Fore
SplineSet
388 50 m 1,0,-1
 186 578 l 1,1,-1
 186 50 l 1,2,-1
 388 50 l 1,0,-1
482 50 m 1,3,-1
 681 50 l 1,4,-1
 681 580 l 1,5,-1
 482 50 l 1,3,-1
125 545 m 0,6,7
 122 590 122 590 100 601 c 0,8,9
 76 613 76 613 43 613 c 2,10,-1
 30 613 l 1,11,-1
 30 655 l 1,12,-1
 258 655 l 1,13,-1
 455 142 l 1,14,-1
 650 655 l 1,15,-1
 872 655 l 1,16,-1
 872 613 l 1,17,-1
 859 613 l 2,18,19
 825 613 825 613 801 600.5 c 128,-1,20
 777 588 777 588 777 541 c 2,21,-1
 777 50 l 1,22,23
 826 50 826 50 844 64 c 0,24,25
 864 80 864 80 872 98 c 0,26,27
 882 122 882 122 884 140 c 2,28,-1
 894 215 l 1,29,-1
 946 215 l 1,30,-1
 939 0 l 1,31,-1
 36 0 l 1,32,-1
 36 50 l 1,33,-1
 56 50 l 2,34,35
 85 50 85 50 99 64 c 0,36,37
 123 88 123 88 125 119 c 0,38,39
 138 356 138 356 125 545 c 0,6,7
EndSplineSet
EndChar

StartChar: T
Encoding: 84 84 5
Width: 656
Flags: W
HStem: 248 388<217.67 404.455>
VStem: 65 485<344.39 494.265>
LayerCount: 2
Fore
SplineSet
520 411 m 0,0,1
 520 482 520 482 483 531 c 0,2,3
 445 581 445 581 378 598 c 1,4,-1
 378 270 l 1,5,6
 431 277 431 277 465 300 c 0,7,8
 520 337 520 337 520 411 c 0,0,1
136 411 m 0,9,10
 136 337 136 337 195 300 c 0,11,12
 228 279 228 279 278 271 c 1,13,-1
 278 597 l 1,14,15
 266 594 266 594 255 590 c 0,16,17
 205 570 205 570 170.5 525.5 c 128,-1,18
 136 481 136 481 136 411 c 0,9,10
36 411 m 0,19,20
 36 491 36 491 78.5 545.5 c 128,-1,21
 121 600 121 600 192 628 c 0,22,23
 258 655 258 655 328 655 c 0,24,25
 401 655 401 655 469 627.5 c 128,-1,26
 537 600 537 600 576 549 c 0,27,28
 620 491 620 491 620 411 c 0,29,30
 620 320 620 320 545 270 c 0,31,32
 482 229 482 229 378 219 c 1,33,-1
 378 114 l 2,34,35
 378 66 378 66 400 54 c 0,36,37
 424 42 424 42 458 42 c 2,38,-1
 471 42 l 1,39,-1
 471 0 l 1,40,-1
 378 0 l 1,41,-1
 278 0 l 1,42,-1
 185 0 l 1,43,-1
 185 42 l 1,44,-1
 198 42 l 2,45,46
 232 42 232 42 256 54 c 0,47,48
 278 65 278 65 278 114 c 2,49,-1
 278 219 l 1,50,51
 179 228 179 228 116 269 c 0,52,53
 36 320 36 320 36 411 c 0,19,20
EndSplineSet
EndChar

StartChar: E
Encoding: 69 69 6
Width: 616
VWidth: 1000
Flags: W
HStem: 229 50<214.801 396.913> 605 50<224.124 390.634>
VStem: 40 112<361.5 524.177> 462 114<346.156 531.635>
LayerCount: 2
Fore
SplineSet
304 610 m 0,0,1
 232 610 232 610 188 566 c 0,2,3
 152 530 152 530 152 479.5 c 128,-1,4
 152 429 152 429 185 394 c 0,5,6
 222 354 222 354 304 354 c 0,7,8
 388 354 388 354 428 394 c 0,9,10
 462 428 462 428 462 480 c 128,-1,11
 462 532 462 532 428 566 c 0,12,13
 384 610 384 610 304 610 c 0,0,1
40 475 m 0,14,15
 40 547 40 547 107 596 c 0,16,17
 188 655 188 655 304 655 c 0,18,19
 432 655 432 655 510 602 c 0,20,21
 576 557 576 557 576 478 c 0,22,23
 576 395 576 395 510 356 c 0,24,25
 426 307 426 307 298 308 c 0,26,27
 265.717292424 308.336278204 265.717292424 308.336278204 234 313.874375808 c 1,28,-1
 234 224 l 1,29,-1
 475 224 l 1,30,-1
 475 175 l 1,31,-1
 234 175 l 1,32,-1
 234 50 l 1,33,-1
 424 50 l 2,34,35
 470 50 470 50 492 74 c 0,36,37
 513 97 513 97 519 132 c 2,38,-1
 526 175 l 1,39,-1
 578 175 l 1,40,-1
 571 0 l 1,41,-1
 38 0 l 1,42,-1
 38 42 l 1,43,-1
 51 42 l 2,44,45
 84 42 84 42 108.5 53.5 c 128,-1,46
 133 65 133 65 133 109 c 2,47,-1
 133 345.342561354 l 1,48,49
 121.963711217 350.337423877 121.963711217 350.337423877 111 356 c 0,50,51
 40 393 40 393 40 475 c 0,14,15
EndSplineSet
EndChar

StartChar: C
Encoding: 67 67 7
Width: 616
VWidth: 1000
Flags: W
LayerCount: 2
Fore
SplineSet
304 605 m 0,0,1
 232 605 232 605 188 551 c 0,2,3
 152 507 152 507 152.5 439 c 128,-1,4
 153 371 153 371 185 328 c 0,5,6
 222 279 222 279 304 279 c 0,7,8
 388 279 388 279 428 328 c 0,9,10
 463 370 463 370 462.5 438.5 c 128,-1,11
 462 507 462 507 428 551 c 0,12,13
 384 605 384 605 304 605 c 0,0,1
70 154 m 0,14,15
 50 196 50 196 46 258 c 0,16,17
 40 347 40 347 40 381 c 0,18,19
 41 518 41 518 107 582 c 0,20,21
 183 655 183 655 304 655 c 0,22,23
 432 655 432 655 510 590 c 0,24,25
 576 535 576 535 576 438.5 c 128,-1,26
 576 342 576 342 510 288 c 0,27,28
 438 229 438 229 312 229 c 0,29,30
 244 229 244 229 185 260 c 0,31,32
 135 286 135 286 116 323 c 1,33,-1
 112 323 l 1,34,35
 115 284 115 284 123 242 c 0,36,37
 132 192 132 192 143 174 c 0,38,39
 174 122 174 122 206 102 c 0,40,41
 269 65 269 65 313 65 c 0,42,43
 365 65 365 65 404 84.5 c 128,-1,44
 443 104 443 104 462 135 c 1,45,46
 481 121 481 121 481 96 c 0,47,48
 481 73 481 73 460 51 c 0,49,50
 439 28 439 28 400.5 14 c 128,-1,51
 362 0 362 0 283 0 c 0,52,53
 206 0 206 0 131 66 c 0,54,55
 98 95 98 95 70 154 c 0,14,15
EndSplineSet
EndChar

StartChar: L
Encoding: 76 76 8
Width: 740
Flags: W
HStem: 0 80<116.147 610.853> 30 50<259 459> 581 50<286.408 443.592>
VStem: 29 52<142 175> 646 52<142 175>
LayerCount: 2
Fore
SplineSet
550 80 m 2,0,1
 597 80 597 80 617.5 94.5 c 128,-1,2
 638 109 638 109 646 142 c 2,3,-1
 652 175 l 1,4,-1
 704 175 l 1,5,-1
 698 0 l 1,6,-1
 42 0 l 1,7,-1
 36 175 l 1,8,-1
 88 175 l 1,9,-1
 94 142 l 2,10,11
 101 109 101 109 121.5 94.5 c 128,-1,12
 142 80 142 80 190 80 c 2,13,-1
 229.850721701 80 l 1,14,15
 202.895923599 99.4680374315 202.895923599 99.4680374315 178 127 c 0,16,17
 100 214 100 214 86.5 342.5 c 128,-1,18
 73 471 73 471 147 557 c 0,19,20
 231 655 231 655 375 654 c 0,21,22
 521 653 521 653 596 557 c 0,23,24
 663 472 663 472 646 330 c 0,25,26
 632 214 632 214 553 127 c 0,27,28
 528.104076401 99.4680374315 528.104076401 99.4680374315 502.264501988 80 c 1,29,-1
 550 80 l 2,0,1
178 330 m 0,30,31
 189 197 189 197 258 135 c 0,32,33
 310 88 310 88 371 88 c 128,-1,34
 432 88 432 88 473 135 c 0,35,36
 545 216 545 216 553 339 c 128,-1,37
 561 462 561 462 505 537 c 0,38,39
 455 604 455 604 372 604 c 0,40,41
 300 604 300 604 238 537 c 0,42,43
 168 460 168 460 178 330 c 0,30,31
371 272 m 0,44,45
 347 272 347 272 330.5 286 c 128,-1,46
 314 300 314 300 314 334 c 0,47,48
 314 369 314 369 330.5 382.5 c 128,-1,49
 347 396 347 396 371 396 c 0,50,51
 394 396 394 396 411 382.5 c 128,-1,52
 428 369 428 369 428 334 c 0,53,54
 428 300 428 300 411 286 c 128,-1,55
 394 272 394 272 371 272 c 0,44,45
EndSplineSet
EndChar

StartChar: U
Encoding: 85 85 9
Width: 808
VWidth: 1000
Flags: W
LayerCount: 2
Fore
SplineSet
621 605 m 1,0,-1
 621 214 l 2,1,2
 621 114 621 114 561 57 c 128,-1,3
 501 0 501 0 407 0 c 0,4,5
 314 0 314 0 250.5 52 c 128,-1,6
 187 104 187 104 187 226 c 2,7,-1
 187 605 l 1,8,-1
 168 605 l 2,9,10
 126 604 126 604 110 580 c 0,11,12
 95 558 95 558 90 523 c 2,13,-1
 85 480 l 1,14,-1
 36 480 l 1,15,-1
 40 655 l 1,16,-1
 767 655 l 1,17,-1
 772 480 l 1,18,-1
 722 480 l 1,19,-1
 718 523 l 2,20,21
 715 554 715 554 698 580 c 0,22,23
 681 605 681 605 639 605 c 2,24,-1
 621 605 l 1,0,-1
292 605 m 1,25,-1
 292 220 l 2,26,27
 292 133 292 133 337 96.5 c 128,-1,28
 382 60 382 60 422 60 c 0,29,30
 475 60 475 60 514 104 c 128,-1,31
 553 148 553 148 553 216 c 2,32,-1
 553 605 l 1,33,-1
 292 605 l 1,25,-1
EndSplineSet
EndChar

StartChar: P
Encoding: 80 80 10
Width: 626
VWidth: 1000
Flags: W
LayerCount: 2
Fore
SplineSet
38 0 m 1,0,-1
 38 42 l 1,1,-1
 51 42 l 2,2,3
 85 42 85 42 109 54 c 128,-1,4
 133 66 133 66 133 114 c 2,5,-1
 133 545 l 2,6,7
 133 589 133 589 108.5 601 c 128,-1,8
 84 613 84 613 51 613 c 2,9,-1
 38 613 l 1,10,-1
 38 655 l 1,11,-1
 342 655 l 2,12,13
 468 655 468 655 528 599 c 128,-1,14
 588 543 588 543 588 446 c 0,15,16
 588 387 588 387 563 335 c 128,-1,17
 538 283 538 283 479 251 c 128,-1,18
 420 219 420 219 320 219 c 2,19,-1
 234 219 l 1,20,-1
 234 109 l 2,21,22
 234 65 234 65 259 53.5 c 128,-1,23
 284 42 284 42 316 42 c 2,24,-1
 349 42 l 1,25,-1
 349 0 l 1,26,-1
 38 0 l 1,0,-1
234 266 m 1,27,-1
 310 266 l 2,28,29
 402 266 402 266 441 306.5 c 128,-1,30
 480 347 480 347 480 436.5 c 128,-1,31
 480 526 480 526 445 566 c 0,32,33
 409 606 409 606 325 607 c 2,34,-1
 234 607 l 1,35,-1
 234 266 l 1,27,-1
349 374 m 0,36,37
 325 374 325 374 308.5 388 c 128,-1,38
 292 402 292 402 292 436 c 0,39,40
 292 471 292 471 308.5 484.5 c 128,-1,41
 325 498 325 498 349 498 c 0,42,43
 372 498 372 498 389 484.5 c 128,-1,44
 406 471 406 471 406 436 c 0,45,46
 406 402 406 402 389 388 c 128,-1,47
 372 374 372 374 349 374 c 0,36,37
EndSplineSet
EndChar

StartChar: S
Encoding: 83 83 11
Width: 834
VWidth: 1000
Flags: W
LayerCount: 2
Fore
SplineSet
364 329 m 0,0,1
 364 230 364 230 351 181 c 0,2,3
 333 113 333 113 302 82 c 0,4,5
 266 46 266 46 224 47 c 0,6,7
 182 47 182 47 157 66.5 c 128,-1,8
 132 86 132 86 120 115 c 128,-1,9
 108 144 108 144 108 175 c 1,10,11
 74 175 74 175 55 158.5 c 128,-1,12
 36 142 36 142 36 110 c 0,13,14
 36 81 36 81 52 59 c 0,15,16
 70 34 70 34 110 17 c 0,17,18
 152 0 152 0 222 0 c 0,19,20
 294 0 294 0 353 41 c 0,21,22
 405 77 405 77 435 155 c 0,23,24
 460 218 460 218 460 329 c 0,25,26
 460 481 460 481 491 534 c 0,27,28
 532 606 532 606 620 607 c 0,29,30
 658 607 658 607 681 589.5 c 128,-1,31
 704 572 704 572 713 546 c 128,-1,32
 722 520 722 520 722 492 c 1,33,34
 754 492 754 492 776 509 c 128,-1,35
 798 526 798 526 798 554 c 0,36,37
 798 597 798 597 754 625.5 c 128,-1,38
 710 654 710 654 620 654 c 0,39,40
 540 654 540 654 478 612 c 0,41,42
 420 573 420 573 389 498 c 0,43,44
 364 437 364 437 364 329 c 0,0,1
EndSplineSet
EndChar

StartChar: J
Encoding: 74 74 12
Width: 608
VWidth: 1000
Flags: W
LayerCount: 2
Fore
SplineSet
144 604 m 1,0,-1
 284 402 l 1,1,-1
 311 365 l 2,2,3
 327 342 327 342 329 339 c 1,4,5
 337 352 337 352 350 368 c 0,6,7
 368 388 368 388 379 406 c 2,8,-1
 506 604 l 1,9,-1
 144 604 l 1,0,-1
265 279 m 1,10,-1
 34 609 l 1,11,-1
 34 654 l 1,12,-1
 574 654 l 1,13,-1
 574 607 l 1,14,-1
 351 279 l 1,15,-1
 354 85 l 2,16,17
 354 68 354 68 371 52 c 0,18,19
 378 45 378 45 415 45 c 2,20,-1
 424 45 l 1,21,-1
 424 0 l 1,22,-1
 50 0 l 1,23,-1
 46 119 l 1,24,-1
 84 119 l 1,25,-1
 87 99 l 2,26,27
 90 80 90 80 95 72 c 0,28,29
 103 58 103 58 116 56 c 0,30,31
 153 50 153 50 160 50 c 2,32,-1
 266 50 l 1,33,-1
 265 279 l 1,10,-1
EndSplineSet
EndChar

StartChar: G
Encoding: 71 71 13
Width: 792
VWidth: 1000
Flags: W
LayerCount: 2
Fore
SplineSet
339 266 m 0,0,1
 315 266 315 266 298.5 280 c 128,-1,2
 282 294 282 294 282 328 c 0,3,4
 282 363 282 363 298.5 376.5 c 128,-1,5
 315 390 315 390 339 390 c 0,6,7
 362 390 362 390 379 376.5 c 128,-1,8
 396 363 396 363 396 328 c 0,9,10
 396 294 396 294 379 280 c 128,-1,11
 362 266 362 266 339 266 c 0,0,1
559 97 m 2,12,13
 547 132 547 132 534 152 c 0,14,15
 522 172 522 172 509 172 c 0,16,17
 499 172 499 172 489 167 c 1,18,-1
 479 194 l 1,19,20
 490 202 490 202 505 209 c 0,21,22
 519 216 519 216 537 216 c 0,23,24
 561 216 561 216 573 210.5 c 128,-1,25
 585 205 585 205 597 178 c 2,26,-1
 608 150 l 2,27,28
 609 147 609 147 618 111 c 0,29,30
 621 99 621 99 629 73 c 1,31,32
 627 89 627 89 634 111 c 2,33,-1
 650 146 l 1,34,-1
 710 296 l 1,35,-1
 546 297 l 2,36,37
 522 297 522 297 511 284 c 0,38,39
 503 275 503 275 499 255 c 2,40,-1
 496 239 l 1,41,-1
 460 239 l 1,42,-1
 463 351 l 1,43,-1
 558.848460994 351 l 1,44,45
 556.447319592 468.274255566 556.447319592 468.274255566 516 536 c 0,46,47
 473 608 473 608 361 608 c 128,-1,48
 249 608 249 608 200.5 534 c 128,-1,49
 152 460 152 460 152 329 c 0,50,51
 152 248 152 248 174 189 c 0,52,53
 196 132 196 132 245 94 c 0,54,55
 288 60 288 60 368 58 c 0,56,57
 430 57 430 57 447.5 61 c 128,-1,58
 465 65 465 65 500 85 c 1,59,60
 506 83 506 83 510 77 c 128,-1,61
 514 71 514 71 514 63 c 0,62,63
 514 47 514 47 497 32 c 128,-1,64
 480 17 480 17 444 7 c 0,65,66
 422 0 422 0 355 0 c 0,67,68
 251 0 251 0 179.5 41.5 c 128,-1,69
 108 83 108 83 72 156.5 c 128,-1,70
 36 230 36 230 36 329 c 0,71,72
 36 423 36 423 74.5 497.5 c 128,-1,73
 113 572 113 572 182 613.5 c 128,-1,74
 251 655 251 655 362 655 c 0,75,76
 458 655 458 655 527.5 614.5 c 128,-1,77
 597 574 597 574 630 501.5 c 0,78,79
 660.468550626 434.561517565 660.468550626 434.561517565 662.805811032 351 c 1,80,-1
 772 351 l 1,81,-1
 772 314 l 1,82,-1
 639 0 l 1,83,-1
 597 0 l 1,84,-1
 559 97 l 2,12,13
EndSplineSet
EndChar

StartChar: V
Encoding: 86 86 14
Width: 618
VWidth: 1000
Flags: W
LayerCount: 2
Fore
SplineSet
198 180 m 2,0,1
 177 246 177 246 155 283 c 128,-1,2
 133 320 133 320 111 320 c 0,3,4
 93 320 93 320 76 310 c 1,5,-1
 58 342 l 1,6,7
 78 358 78 358 103.5 371 c 128,-1,8
 129 384 129 384 159 384 c 0,9,10
 192 384 192 384 213 363 c 0,11,12
 237 340 237 340 256 294 c 2,13,-1
 275 245 l 2,14,15
 295 193 295 193 301 168 c 0,16,17
 306 145 306 145 320 97 c 1,18,19
 324 107 324 107 337 167 c 0,20,21
 342 191 342 191 363 245 c 2,22,-1
 497 590 l 1,23,-1
 164 590 l 2,24,25
 116 590 116 590 103 570 c 0,26,27
 87 547 87 547 82 513 c 2,28,-1
 77 480 l 1,29,-1
 25 480 l 1,30,-1
 30 655 l 1,31,-1
 569 655 l 1,32,-1
 569 604 l 1,33,-1
 337 -2 l 1,34,-1
 265 -2 l 1,35,-1
 198 180 l 2,0,1
EndSplineSet
EndChar

StartChar: R
Encoding: 82 82 15
Width: 776
Flags: W
HStem: 16 614<238.915 425.258>
VStem: 25 595<231.339 470.728>
LayerCount: 2
Fore
SplineSet
64 328 m 128,-1,1
 64 463 64 463 154 559 c 128,-1,2
 244 655 244 655 388 655 c 128,-1,3
 532 655 532 655 622 559 c 128,-1,4
 712 463 712 463 712 328 c 128,-1,5
 712 193 712 193 622 96.5 c 128,-1,6
 532 0 532 0 388 0 c 128,-1,7
 244 0 244 0 154 96.5 c 128,-1,0
 64 193 64 193 64 328 c 128,-1,1
164.765164181 354 m 1,8,-1
 335 354 l 1,9,-1
 335 607.107643206 l 1,10,11
 275.380946953 589.938454524 275.380946953 589.938454524 229 530 c 0,12,13
 171.052352214 455.113809014 171.052352214 455.113809014 164.765164181 354 c 1,8,-1
611.199520549 354 m 1,14,15
 604.622154607 455.113809014 604.622154607 455.113809014 544 530 c 0,16,17
 495.379265203 590.06090769 495.379265203 590.06090769 435 607.177617374 c 1,18,-1
 435 354 l 1,19,-1
 611.199520549 354 l 1,14,15
611.198753884 304 m 1,20,-1
 435 304 l 1,21,-1
 435 52.7411637857 l 1,22,23
 495.379265203 69.6541031158 495.379265203 69.6541031158 544 129 c 0,24,25
 604.618622359 202.990377291 604.618622359 202.990377291 611.198753884 304 c 1,20,-1
164.765897022 304 m 1,26,27
 171.055728627 202.990377291 171.055728627 202.990377291 229 129 c 0,28,29
 275.380946953 69.7750985061 275.380946953 69.7750985061 335 52.8103049274 c 1,30,-1
 335 304 l 1,31,-1
 164.765897022 304 l 1,26,27
EndSplineSet
EndChar

StartChar: K
Encoding: 75 75 16
Width: 770
VWidth: 1000
Flags: W
LayerCount: 2
Fore
SplineSet
251.5 50 m 128,-1,1
 318 50 318 50 342 124 c 0,2,3
 367 200 367 200 367 324 c 0,4,5
 367 458 367 458 343 532 c 0,6,7
 319 605 319 605 252.5 605 c 128,-1,8
 186 605 186 605 161 532 c 0,9,10
 136 458 136 458 136 324 c 0,11,12
 136 194 136 194 160 124 c 0,13,0
 185 50 185 50 251.5 50 c 128,-1,1
252 0 m 0,14,15
 179 0 179 0 131.5 41.5 c 128,-1,16
 84 83 84 83 60 158.5 c 128,-1,17
 36 234 36 234 36 325 c 0,18,19
 36 423 36 423 60 497.5 c 128,-1,20
 84 572 84 572 132 613.5 c 128,-1,21
 180 655 180 655 253 655 c 0,22,23
 321 655 321 655 369 613.5 c 128,-1,24
 417 572 417 572 442 497 c 0,25,26
 448.479809113 477.56057266 448.479809113 477.56057266 453.280101181 456.643170321 c 1,27,-1
 549 545 l 1,28,-1
 734 545 l 1,29,-1
 734 503 l 1,30,-1
 721 503 l 2,31,32
 703 504 703 504 690 496 c 0,33,34
 676 486 676 486 676 431 c 2,35,-1
 676 93 l 1,36,-1
 580 93 l 1,37,-1
 455.686425028 208.914009096 l 1,38,39
 450.182170939 182.546512818 450.182170939 182.546512818 442 158 c 0,40,41
 417 83 417 83 369 41.5 c 128,-1,42
 321 0 321 0 252 0 c 0,14,15
462.739332991 401.339179898 m 1,43,44
 467 365.044283433 467 365.044283433 467 325 c 0,45,46
 467 293.035761239 467 293.035761239 463.982181712 263.123638913 c 1,47,-1
 580 162 l 1,48,-1
 580 498 l 1,49,-1
 462.739332991 401.339179898 l 1,43,44
EndSplineSet
EndChar

StartChar: D
Encoding: 68 68 17
Width: 727
VWidth: 1000
Flags: W
LayerCount: 2
Fore
SplineSet
234 61 m 1,0,-1
 321 61 l 2,1,2
 440 61 440 61 500 130 c 0,3,4
 559 199 559 199 559 327 c 128,-1,5
 559 455 559 455 500 523 c 128,-1,6
 441 591 441 591 322 592 c 2,7,-1
 234 592 l 1,8,-1
 234 61 l 1,0,-1
41 -2 m 1,9,-1
 38 54 l 1,10,-1
 51 54 l 2,11,12
 85 54 85 54 109 64.5 c 128,-1,13
 133 75 133 75 133 116 c 2,14,-1
 133 540 l 2,15,16
 133 578 133 578 109 588 c 0,17,18
 83 598 83 598 51 598 c 2,19,-1
 38 598 l 1,20,-1
 41 655 l 1,21,-1
 344 655 l 2,22,23
 496 655 496 655 581 570 c 0,24,25
 666 484 666 484 666 328 c 0,26,27
 666 226 666 226 630 153 c 0,28,29
 594 79 594 79 522 39 c 0,30,31
 451 -1 451 -1 344 -2 c 2,32,-1
 41 -2 l 1,9,-1
379 266 m 0,33,34
 355 266 355 266 338.5 280 c 128,-1,35
 322 294 322 294 322 328 c 0,36,37
 322 363 322 363 338.5 376.5 c 128,-1,38
 355 390 355 390 379 390 c 0,39,40
 402 390 402 390 419 376.5 c 128,-1,41
 436 363 436 363 436 328 c 0,42,43
 436 294 436 294 419 280 c 128,-1,44
 402 266 402 266 379 266 c 0,33,34
EndSplineSet
EndChar

StartChar: I
Encoding: 73 73 18
Width: 656
Flags: W
LayerCount: 2
Fore
SplineSet
36 411 m 0,0,1
 36 491 36 491 78.5 545.5 c 128,-1,2
 121 600 121 600 192 628 c 0,3,4
 258 655 258 655 328 655 c 0,5,6
 401 655 401 655 469 627.5 c 128,-1,7
 537 600 537 600 576 549 c 0,8,9
 620 491 620 491 620 411 c 0,10,11
 620 320 620 320 545 270 c 0,12,13
 482 229 482 229 378 219 c 1,14,-1
 378 114 l 2,15,16
 378 66 378 66 400 54 c 0,17,18
 424 42 424 42 458 42 c 2,19,-1
 471 42 l 1,20,-1
 471 0 l 1,21,-1
 378 0 l 1,22,-1
 278 0 l 1,23,-1
 185 0 l 1,24,-1
 185 42 l 1,25,-1
 198 42 l 2,26,27
 232 42 232 42 256 54 c 0,28,29
 278 65 278 65 278 114 c 2,30,-1
 278 219 l 1,31,32
 179 228 179 228 116 269 c 0,33,34
 36 320 36 320 36 411 c 0,0,1
378 269 m 0,35,36
 437 282 437 282 465 300 c 0,37,38
 520 337 520 337 520 411 c 0,39,40
 520 473 520 473 483 531 c 0,41,42
 458 571 458 571 412 590 c 0,43,44
 396 597 396 597 328 597 c 0,45,46
 270 597 270 597 255 590 c 0,47,48
 202 566 202 566 170 526 c 0,49,50
 136 482 136 482 136 411 c 0,51,52
 136 335 136 335 195 300 c 0,53,54
 200 297 200 297 278 271 c 0,55,56
 299 264 299 264 328 264 c 0,57,58
 353 264 353 264 378 269 c 0,35,36
327 355 m 0,59,60
 303 355 303 355 286.5 369 c 128,-1,61
 270 383 270 383 270 417 c 0,62,63
 270 452 270 452 286.5 465.5 c 128,-1,64
 303 479 303 479 327 479 c 0,65,66
 350 479 350 479 367 465.5 c 128,-1,67
 384 452 384 452 384 417 c 0,68,69
 384 383 384 383 367 369 c 128,-1,70
 350 355 350 355 327 355 c 0,59,60
EndSplineSet
EndChar

StartChar: Z
Encoding: 90 90 19
Width: 656
Flags: W
LayerCount: 2
Fore
SplineSet
378 269 m 0,0,1
 437 282 437 282 465 300 c 0,2,3
 520 337 520 337 520 411 c 0,4,5
 520 473 520 473 483 531 c 0,6,7
 458 571 458 571 412 590 c 0,8,9
 396 597 396 597 328 597 c 0,10,11
 270 597 270 597 255 590 c 0,12,13
 202 566 202 566 170 526 c 0,14,15
 136 482 136 482 136 411 c 0,16,17
 136 335 136 335 195 300 c 0,18,19
 200 297 200 297 278 271 c 0,20,21
 299 264 299 264 328 264 c 0,22,23
 353 264 353 264 378 269 c 0,0,1
327 355 m 0,24,25
 303 355 303 355 286.5 369 c 128,-1,26
 270 383 270 383 270 417 c 0,27,28
 270 452 270 452 286.5 465.5 c 128,-1,29
 303 479 303 479 327 479 c 0,30,31
 350 479 350 479 367 465.5 c 128,-1,32
 384 452 384 452 384 417 c 0,33,34
 384 383 384 383 367 369 c 128,-1,35
 350 355 350 355 327 355 c 0,24,25
278 219 m 1,36,37
 179 228 179 228 116 269 c 0,38,39
 36 320 36 320 36 411 c 0,40,41
 36 491 36 491 78.5 545.5 c 128,-1,42
 121 600 121 600 192 628 c 0,43,44
 258 655 258 655 328 655 c 0,45,46
 401 655 401 655 469 627.5 c 128,-1,47
 537 600 537 600 576 549 c 0,48,49
 620 491 620 491 620 411 c 0,50,51
 620 320 620 320 545 270 c 0,52,53
 482 229 482 229 378 219 c 1,54,55
 384 159 384 159 404 116 c 0,56,57
 423 76 423 76 451 63 c 0,58,59
 485 47 485 47 518 47 c 2,60,-1
 533 47 l 1,61,-1
 533 0 l 1,62,-1
 493 0 l 2,63,64
 437 0 437 0 396 20 c 0,65,66
 347 44 347 44 316 87 c 0,67,68
 283 134 283 134 278 219 c 1,36,37
EndSplineSet
EndChar

StartChar: F
Encoding: 70 70 20
Width: 616
VWidth: 1000
Flags: W
LayerCount: 2
Fore
SplineSet
304 610 m 0,0,1
 232 610 232 610 188 566 c 0,2,3
 152 530 152 530 152 479.5 c 128,-1,4
 152 429 152 429 185 394 c 0,5,6
 222 354 222 354 304 354 c 0,7,8
 388 354 388 354 428 394 c 0,9,10
 462 428 462 428 462 480 c 128,-1,11
 462 532 462 532 428 566 c 0,12,13
 384 610 384 610 304 610 c 0,0,1
40 475 m 0,14,15
 40 547 40 547 107 596 c 0,16,17
 188 655 188 655 304 655 c 0,18,19
 432 655 432 655 510 602 c 0,20,21
 576 557 576 557 576 478 c 0,22,23
 576 395 576 395 510 356 c 0,24,25
 428 308 428 308 298 308 c 0,26,27
 265.717292424 308.336278204 265.717292424 308.336278204 234 313.874375808 c 1,28,-1
 234 206 l 1,29,-1
 475 206 l 1,30,-1
 475 157 l 1,31,-1
 234 157 l 1,32,-1
 234 114 l 2,33,34
 234 67 234 67 258 54.5 c 128,-1,35
 282 42 282 42 316 42 c 2,36,-1
 349 42 l 1,37,-1
 349 0 l 1,38,-1
 38 0 l 1,39,-1
 38 42 l 1,40,-1
 51 42 l 2,41,42
 84 42 84 42 108.5 53.5 c 128,-1,43
 133 65 133 65 133 109 c 2,44,-1
 133 345.342561354 l 1,45,46
 121.963711217 350.337423877 121.963711217 350.337423877 111 356 c 0,47,48
 40 393 40 393 40 475 c 0,14,15
EndSplineSet
EndChar

StartChar: H
Encoding: 72 72 21
Width: 793
VWidth: 1000
Flags: W
HStem: 193 360<240.446 449.913>
VStem: 150 432<274.235 441.559>
LayerCount: 2
Fore
SplineSet
234 114 m 2,0,1
 234 67 234 67 258 54.5 c 128,-1,2
 282 42 282 42 316 42 c 2,3,-1
 329 42 l 1,4,-1
 329 0 l 1,5,-1
 38 0 l 1,6,-1
 38 42 l 1,7,-1
 51 42 l 2,8,9
 85 42 85 42 109 54.5 c 128,-1,10
 133 67 133 67 133 114 c 2,11,-1
 133 330 l 1,12,-1
 133 545 l 2,13,14
 133 589 133 589 108.5 601 c 128,-1,15
 84 613 84 613 51 613 c 2,16,-1
 38 613 l 1,17,-1
 38 655 l 1,18,-1
 329 655 l 1,19,-1
 329 613 l 1,20,-1
 316 613 l 2,21,22
 282 613 282 613 258 600.5 c 128,-1,23
 234 588 234 588 234 541 c 2,24,-1
 234 479.731961041 l 1,25,26
 241.467513446 483.030004972 241.467513446 483.030004972 249.5 486 c 0,27,28
 309 508 309 508 398 508 c 0,29,30
 481 508 481 508 540 486 c 0,31,32
 549.901326266 482.307980037 549.901326266 482.307980037 559 478.094940009 c 1,33,-1
 559 541 l 2,34,35
 559 588 559 588 535 600.5 c 128,-1,36
 511 613 511 613 477 613 c 2,37,-1
 464 613 l 1,38,-1
 464 655 l 1,39,-1
 755 655 l 1,40,-1
 755 613 l 1,41,-1
 742 613 l 2,42,43
 708 613 708 613 684 600.5 c 128,-1,44
 660 588 660 588 660 541 c 2,45,-1
 660 329 l 1,46,-1
 660 109 l 2,47,48
 660 65 660 65 684.5 53.5 c 128,-1,49
 709 42 709 42 742 42 c 2,50,-1
 755 42 l 1,51,-1
 755 0 l 1,52,-1
 464 0 l 1,53,-1
 464 42 l 1,54,-1
 477 42 l 2,55,56
 511 42 511 42 535 54.5 c 128,-1,57
 559 67 559 67 559 114 c 2,58,-1
 559 180.544715834 l 1,59,60
 549.901326266 176.275929508 549.901326266 176.275929508 540 172.5 c 0,61,62
 481 150 481 150 397 150 c 0,63,64
 309 150 309 150 249.5 172.5 c 0,65,66
 241.467513446 175.537494915 241.467513446 175.537494915 234 178.903038733 c 1,67,-1
 234 114 l 2,0,1
397 200 m 128,-1,69
 483 200 483 200 521 240.5 c 128,-1,70
 559 281 559 281 559 329 c 128,-1,71
 559 377 559 377 521 417.5 c 128,-1,72
 483 458 483 458 398 458 c 0,73,74
 311 458 311 458 272 418 c 0,75,76
 239.30399276 383.583150273 239.30399276 383.583150273 234 342.503378106 c 1,77,-1
 234 313.83282544 l 1,78,79
 239.244997998 274.594873848 239.244997998 274.594873848 272 241 c 0,80,68
 311 200 311 200 397 200 c 128,-1,69
398 266 m 0,81,82
 374 266 374 266 357.5 280 c 128,-1,83
 341 294 341 294 341 328 c 0,84,85
 341 363 341 363 357.5 376.5 c 128,-1,86
 374 390 374 390 398 390 c 0,87,88
 421 390 421 390 438 376.5 c 128,-1,89
 455 363 455 363 455 328 c 0,90,91
 455 294 455 294 438 280 c 128,-1,92
 421 266 421 266 398 266 c 0,81,82
EndSplineSet
EndChar

StartChar: Y
Encoding: 89 89 22
Width: 678
VWidth: 1000
Flags: W
LayerCount: 2
Fore
SplineSet
58 285 m 1,0,-1
 58 312 l 1,1,-1
 298 655 l 1,2,-1
 388 655 l 1,3,-1
 620 316 l 1,4,-1
 620 285 l 1,5,-1
 394 285 l 1,6,-1
 394 114 l 2,7,8
 394 67 394 67 418 54.5 c 128,-1,9
 442 42 442 42 476 42 c 2,10,-1
 498 42 l 1,11,-1
 498 0 l 1,12,-1
 188 0 l 1,13,-1
 188 42 l 1,14,-1
 210 42 l 2,15,16
 243 42 243 42 267.5 53.5 c 128,-1,17
 292 65 292 65 292 109 c 2,18,-1
 292 285 l 1,19,-1
 58 285 l 1,0,-1
128 320 m 1,20,-1
 506 320 l 1,21,-1
 374 523 l 2,22,23
 359 546 359 546 344.5 567 c 128,-1,24
 330 588 330 588 322 607 c 1,25,26
 315 588 315 588 303.5 569.5 c 128,-1,27
 292 551 292 551 274 527 c 2,28,-1
 128 320 l 1,20,-1
EndSplineSet
EndChar

StartChar: Ccircumflex
Encoding: 264 264 23
Width: 616
Flags: W
LayerCount: 2
Fore
SplineSet
161 703 m 1,0,-1
 161 716 l 1,1,2
 177 735 177 735 196 761 c 128,-1,3
 215 787 215 787 233 814 c 128,-1,4
 251 841 251 841 261 863 c 1,5,-1
 356 863 l 1,6,7
 367 841 367 841 384.5 814 c 128,-1,8
 402 787 402 787 421.5 761 c 128,-1,9
 441 735 441 735 456 716 c 1,10,-1
 456 703 l 1,11,-1
 417 703 l 1,12,13
 389 719 389 719 360 744 c 128,-1,14
 331 769 331 769 308 793 c 1,15,16
 285 769 285 769 257 744 c 128,-1,17
 229 719 229 719 200 703 c 1,18,-1
 161 703 l 1,0,-1
70 154 m 0,19,20
 50 196 50 196 46 258 c 0,21,22
 40 347 40 347 40 381 c 0,23,24
 41 518 41 518 107 582 c 0,25,26
 183 655 183 655 304 655 c 0,27,28
 432 655 432 655 510 590 c 0,29,30
 576 535 576 535 576 438.5 c 128,-1,31
 576 342 576 342 510 288 c 0,32,33
 438 229 438 229 312 229 c 0,34,35
 244 229 244 229 185 260 c 0,36,37
 135 286 135 286 116 323 c 1,38,-1
 112 323 l 1,39,40
 115 284 115 284 123 242 c 0,41,42
 132 192 132 192 143 174 c 0,43,44
 174 122 174 122 206 102 c 0,45,46
 269 65 269 65 313 65 c 0,47,48
 365 65 365 65 404 84.5 c 128,-1,49
 443 104 443 104 462 135 c 1,50,51
 481 121 481 121 481 96 c 0,52,53
 481 73 481 73 460 51 c 0,54,55
 439 28 439 28 400.5 14 c 128,-1,56
 362 0 362 0 283 0 c 0,57,58
 206 0 206 0 131 66 c 0,59,60
 98 95 98 95 70 154 c 0,19,20
304 605 m 0,61,62
 232 605 232 605 188 551 c 0,63,64
 152 507 152 507 152.5 439 c 128,-1,65
 153 371 153 371 185 328 c 0,66,67
 222 279 222 279 304 279 c 0,68,69
 388 279 388 279 428 328 c 0,70,71
 463 370 463 370 462.5 438.5 c 128,-1,72
 462 507 462 507 428 551 c 0,73,74
 384 605 384 605 304 605 c 0,61,62
EndSplineSet
LCarets2: 1 0
Ligature2: "'liga' +ahluljBuVAhbVwAA in +MOkwxjDzZYdbVwAA lookup 0-1" C asciicircum
EndChar

StartChar: Gcircumflex
Encoding: 284 284 24
Width: 792
Flags: W
LayerCount: 2
Fore
SplineSet
224 703 m 1,0,-1
 224 716 l 1,1,2
 240 735 240 735 259 761 c 128,-1,3
 278 787 278 787 296 814 c 128,-1,4
 314 841 314 841 324 863 c 1,5,-1
 419 863 l 1,6,7
 430 841 430 841 447.5 814 c 128,-1,8
 465 787 465 787 484.5 761 c 128,-1,9
 504 735 504 735 519 716 c 1,10,-1
 519 703 l 1,11,-1
 480 703 l 1,12,13
 452 719 452 719 423 744 c 128,-1,14
 394 769 394 769 371 793 c 1,15,16
 348 769 348 769 320 744 c 128,-1,17
 292 719 292 719 263 703 c 1,18,-1
 224 703 l 1,0,-1
559 97 m 2,19,20
 547 132 547 132 534 152 c 0,21,22
 522 172 522 172 509 172 c 0,23,24
 499 172 499 172 489 167 c 1,25,-1
 479 194 l 1,26,27
 490 202 490 202 505 209 c 0,28,29
 519 216 519 216 537 216 c 0,30,31
 561 216 561 216 573 210.5 c 128,-1,32
 585 205 585 205 597 178 c 2,33,-1
 608 150 l 2,34,35
 609 147 609 147 618 111 c 0,36,37
 621 99 621 99 629 73 c 1,38,39
 627 89 627 89 634 111 c 2,40,-1
 650 146 l 1,41,-1
 710 296 l 1,42,-1
 546 297 l 2,43,44
 522 297 522 297 511 284 c 0,45,46
 503 275 503 275 499 255 c 2,47,-1
 496 239 l 1,48,-1
 460 239 l 1,49,-1
 463 351 l 1,50,-1
 559 351 l 1,51,52
 556 468 556 468 516 536 c 0,53,54
 473 608 473 608 361 608 c 128,-1,55
 249 608 249 608 200.5 534 c 128,-1,56
 152 460 152 460 152 329 c 0,57,58
 152 248 152 248 174 189 c 0,59,60
 196 132 196 132 245 94 c 0,61,62
 288 60 288 60 368 58 c 0,63,64
 430 57 430 57 447.5 61 c 128,-1,65
 465 65 465 65 500 85 c 1,66,67
 506 83 506 83 510 77 c 128,-1,68
 514 71 514 71 514 63 c 0,69,70
 514 47 514 47 497 32 c 128,-1,71
 480 17 480 17 444 7 c 0,72,73
 422 0 422 0 355 0 c 0,74,75
 251 0 251 0 179.5 41.5 c 128,-1,76
 108 83 108 83 72 156.5 c 128,-1,77
 36 230 36 230 36 329 c 0,78,79
 36 423 36 423 74.5 497.5 c 128,-1,80
 113 572 113 572 182 613.5 c 128,-1,81
 251 655 251 655 362 655 c 0,82,83
 458 655 458 655 527.5 614.5 c 128,-1,84
 597 574 597 574 630 502 c 0,85,86
 660 435 660 435 663 351 c 1,87,-1
 772 351 l 1,88,-1
 772 314 l 1,89,-1
 639 0 l 1,90,-1
 597 0 l 1,91,-1
 559 97 l 2,19,20
339 266 m 0,92,93
 315 266 315 266 298.5 280 c 128,-1,94
 282 294 282 294 282 328 c 0,95,96
 282 363 282 363 298.5 376.5 c 128,-1,97
 315 390 315 390 339 390 c 0,98,99
 362 390 362 390 379 376.5 c 128,-1,100
 396 363 396 363 396 328 c 0,101,102
 396 294 396 294 379 280 c 128,-1,103
 362 266 362 266 339 266 c 0,92,93
EndSplineSet
LCarets2: 1 0
Ligature2: "'liga' +ahluljBuVAhbVwAA in +MOkwxjDzZYdbVwAA lookup 0-1" G asciicircum
EndChar

StartChar: Hcircumflex
Encoding: 292 292 25
Width: 793
Flags: W
LayerCount: 2
Fore
SplineSet
249 703 m 1,0,-1
 249 716 l 1,1,2
 265 735 265 735 284 761 c 128,-1,3
 303 787 303 787 321 814 c 128,-1,4
 339 841 339 841 349 863 c 1,5,-1
 444 863 l 1,6,7
 455 841 455 841 472.5 814 c 128,-1,8
 490 787 490 787 509.5 761 c 128,-1,9
 529 735 529 735 544 716 c 1,10,-1
 544 703 l 1,11,-1
 505 703 l 1,12,13
 477 719 477 719 448 744 c 128,-1,14
 419 769 419 769 396 793 c 1,15,16
 373 769 373 769 345 744 c 128,-1,17
 317 719 317 719 288 703 c 1,18,-1
 249 703 l 1,0,-1
398 266 m 0,19,20
 374 266 374 266 357.5 280 c 128,-1,21
 341 294 341 294 341 328 c 0,22,23
 341 363 341 363 357.5 376.5 c 128,-1,24
 374 390 374 390 398 390 c 0,25,26
 421 390 421 390 438 376.5 c 128,-1,27
 455 363 455 363 455 328 c 0,28,29
 455 294 455 294 438 280 c 128,-1,30
 421 266 421 266 398 266 c 0,19,20
397 200 m 128,-1,32
 483 200 483 200 521 240.5 c 128,-1,33
 559 281 559 281 559 329 c 128,-1,34
 559 377 559 377 521 417.5 c 128,-1,35
 483 458 483 458 398 458 c 0,36,37
 311 458 311 458 272 418 c 0,38,39
 239 384 239 384 234 343 c 1,40,-1
 234 314 l 1,41,42
 239 275 239 275 272 241 c 0,43,31
 311 200 311 200 397 200 c 128,-1,32
234 114 m 2,44,45
 234 67 234 67 258 54.5 c 128,-1,46
 282 42 282 42 316 42 c 2,47,-1
 329 42 l 1,48,-1
 329 0 l 1,49,-1
 38 0 l 1,50,-1
 38 42 l 1,51,-1
 51 42 l 2,52,53
 85 42 85 42 109 54.5 c 128,-1,54
 133 67 133 67 133 114 c 2,55,-1
 133 330 l 1,56,-1
 133 545 l 2,57,58
 133 589 133 589 108.5 601 c 128,-1,59
 84 613 84 613 51 613 c 2,60,-1
 38 613 l 1,61,-1
 38 655 l 1,62,-1
 329 655 l 1,63,-1
 329 613 l 1,64,-1
 316 613 l 2,65,66
 282 613 282 613 258 600.5 c 128,-1,67
 234 588 234 588 234 541 c 2,68,-1
 234 480 l 1,69,70
 241 483 241 483 250 486 c 0,71,72
 309 508 309 508 398 508 c 0,73,74
 481 508 481 508 540 486 c 0,75,76
 550 482 550 482 559 478 c 1,77,-1
 559 541 l 2,78,79
 559 588 559 588 535 600.5 c 128,-1,80
 511 613 511 613 477 613 c 2,81,-1
 464 613 l 1,82,-1
 464 655 l 1,83,-1
 755 655 l 1,84,-1
 755 613 l 1,85,-1
 742 613 l 2,86,87
 708 613 708 613 684 600.5 c 128,-1,88
 660 588 660 588 660 541 c 2,89,-1
 660 329 l 1,90,-1
 660 109 l 2,91,92
 660 65 660 65 684.5 53.5 c 128,-1,93
 709 42 709 42 742 42 c 2,94,-1
 755 42 l 1,95,-1
 755 0 l 1,96,-1
 464 0 l 1,97,-1
 464 42 l 1,98,-1
 477 42 l 2,99,100
 511 42 511 42 535 54.5 c 128,-1,101
 559 67 559 67 559 114 c 2,102,-1
 559 181 l 1,103,104
 550 176 550 176 540 172 c 0,105,106
 481 150 481 150 397 150 c 0,107,108
 309 150 309 150 250 172 c 0,109,110
 241 176 241 176 234 179 c 1,111,-1
 234 114 l 2,44,45
EndSplineSet
LCarets2: 1 0
Ligature2: "'liga' +ahluljBuVAhbVwAA in +MOkwxjDzZYdbVwAA lookup 0-1" H asciicircum
EndChar

StartChar: Jcircumflex
Encoding: 308 308 26
Width: 608
Flags: W
LayerCount: 2
Fore
SplineSet
157 703 m 1,0,-1
 157 716 l 1,1,2
 173 735 173 735 192 761 c 128,-1,3
 211 787 211 787 229 814 c 128,-1,4
 247 841 247 841 257 863 c 1,5,-1
 352 863 l 1,6,7
 363 841 363 841 380.5 814 c 128,-1,8
 398 787 398 787 417.5 761 c 128,-1,9
 437 735 437 735 452 716 c 1,10,-1
 452 703 l 1,11,-1
 413 703 l 1,12,13
 385 719 385 719 356 744 c 128,-1,14
 327 769 327 769 304 793 c 1,15,16
 281 769 281 769 253 744 c 128,-1,17
 225 719 225 719 196 703 c 1,18,-1
 157 703 l 1,0,-1
265 279 m 1,19,-1
 34 609 l 1,20,-1
 34 654 l 1,21,-1
 574 654 l 1,22,-1
 574 607 l 1,23,-1
 351 279 l 1,24,-1
 354 85 l 2,25,26
 354 68 354 68 371 52 c 0,27,28
 378 45 378 45 415 45 c 2,29,-1
 424 45 l 1,30,-1
 424 0 l 1,31,-1
 50 0 l 1,32,-1
 46 119 l 1,33,-1
 84 119 l 1,34,-1
 87 99 l 2,35,36
 90 80 90 80 95 72 c 0,37,38
 103 58 103 58 116 56 c 0,39,40
 153 50 153 50 160 50 c 2,41,-1
 266 50 l 1,42,-1
 265 279 l 1,19,-1
144 604 m 1,43,-1
 284 402 l 1,44,-1
 311 365 l 2,45,46
 327 342 327 342 329 339 c 1,47,48
 337 352 337 352 350 368 c 0,49,50
 368 388 368 388 379 406 c 2,51,-1
 506 604 l 1,52,-1
 144 604 l 1,43,-1
EndSplineSet
LCarets2: 1 0
Ligature2: "'liga' +ahluljBuVAhbVwAA in +MOkwxjDzZYdbVwAA lookup 0-1" J asciicircum
EndChar

StartChar: Scircumflex
Encoding: 348 348 27
Width: 834
Flags: W
LayerCount: 2
Fore
SplineSet
270 703 m 1,0,-1
 270 716 l 1,1,2
 286 735 286 735 305 761 c 128,-1,3
 324 787 324 787 342 814 c 128,-1,4
 360 841 360 841 370 863 c 1,5,-1
 465 863 l 1,6,7
 476 841 476 841 493.5 814 c 128,-1,8
 511 787 511 787 530.5 761 c 128,-1,9
 550 735 550 735 565 716 c 1,10,-1
 565 703 l 1,11,-1
 526 703 l 1,12,13
 498 719 498 719 469 744 c 128,-1,14
 440 769 440 769 417 793 c 1,15,16
 394 769 394 769 366 744 c 128,-1,17
 338 719 338 719 309 703 c 1,18,-1
 270 703 l 1,0,-1
364 329 m 0,19,20
 364 230 364 230 351 181 c 0,21,22
 333 113 333 113 302 82 c 0,23,24
 266 46 266 46 224 47 c 0,25,26
 182 47 182 47 157 66.5 c 128,-1,27
 132 86 132 86 120 115 c 128,-1,28
 108 144 108 144 108 175 c 1,29,30
 74 175 74 175 55 158.5 c 128,-1,31
 36 142 36 142 36 110 c 0,32,33
 36 81 36 81 52 59 c 0,34,35
 70 34 70 34 110 17 c 0,36,37
 152 0 152 0 222 0 c 0,38,39
 294 0 294 0 353 41 c 0,40,41
 405 77 405 77 435 155 c 0,42,43
 460 218 460 218 460 329 c 0,44,45
 460 481 460 481 491 534 c 0,46,47
 532 606 532 606 620 607 c 0,48,49
 658 607 658 607 681 589.5 c 128,-1,50
 704 572 704 572 713 546 c 128,-1,51
 722 520 722 520 722 492 c 1,52,53
 754 492 754 492 776 509 c 128,-1,54
 798 526 798 526 798 554 c 0,55,56
 798 597 798 597 754 625.5 c 128,-1,57
 710 654 710 654 620 654 c 0,58,59
 540 654 540 654 478 612 c 0,60,61
 420 573 420 573 389 498 c 0,62,63
 364 437 364 437 364 329 c 0,19,20
EndSplineSet
LCarets2: 1 0
Ligature2: "'liga' +ahluljBuVAhbVwAA in +MOkwxjDzZYdbVwAA lookup 0-1" S asciicircum
EndChar

StartChar: Ubreve
Encoding: 364 364 28
Width: 808
Flags: W
LayerCount: 2
Fore
SplineSet
408 735 m 128,-1,1
 337 735 337 735 303.5 775.5 c 128,-1,2
 270 816 270 816 268 872 c 1,3,-1
 314 872 l 1,4,5
 322 836 322 836 346.5 820 c 128,-1,6
 371 804 371 804 408 804 c 128,-1,7
 445 804 445 804 469.5 820 c 128,-1,8
 494 836 494 836 502 872 c 1,9,-1
 548 872 l 1,10,11
 546 816 546 816 512.5 775.5 c 128,-1,0
 479 735 479 735 408 735 c 128,-1,1
621 605 m 1,12,-1
 621 214 l 2,13,14
 621 114 621 114 561 57 c 128,-1,15
 501 0 501 0 407 0 c 0,16,17
 314 0 314 0 250.5 52 c 128,-1,18
 187 104 187 104 187 226 c 2,19,-1
 187 605 l 1,20,-1
 168 605 l 2,21,22
 126 604 126 604 110 580 c 0,23,24
 95 558 95 558 90 523 c 2,25,-1
 85 480 l 1,26,-1
 36 480 l 1,27,-1
 40 655 l 1,28,-1
 767 655 l 1,29,-1
 772 480 l 1,30,-1
 722 480 l 1,31,-1
 718 523 l 2,32,33
 715 554 715 554 698 580 c 0,34,35
 681 605 681 605 639 605 c 2,36,-1
 621 605 l 1,12,-1
292 605 m 1,37,-1
 292 220 l 2,38,39
 292 133 292 133 337 96.5 c 128,-1,40
 382 60 382 60 422 60 c 0,41,42
 475 60 475 60 514 104 c 128,-1,43
 553 148 553 148 553 216 c 2,44,-1
 553 605 l 1,45,-1
 292 605 l 1,37,-1
EndSplineSet
LCarets2: 1 0
Ligature2: "'liga' +ahluljBuVAhbVwAA in +MOkwxjDzZYdbVwAA lookup 0-1" U asciicircum
EndChar

StartChar: asciicircum
Encoding: 94 94 29
Width: 560
VWidth: 1000
Flags: W
LayerCount: 2
Fore
SplineSet
50 247 m 1,0,-1
 262 655 l 1,1,-1
 297 655 l 1,2,-1
 510 247 l 1,3,-1
 443 247 l 1,4,-1
 279 571 l 1,5,-1
 117 247 l 1,6,-1
 50 247 l 1,0,-1
EndSplineSet
EndChar

StartChar: comma
Encoding: 44 44 31
Width: 250
VWidth: 1000
Flags: W
LayerCount: 2
Fore
SplineSet
30 -154 m 1,0,-1
 30 -112 l 1,1,2
 125 -81 125 -81 125 -22 c 0,3,4
 125 -7 125 -7 114 1 c 128,-1,5
 103 9 103 9 88.5 16 c 128,-1,6
 74 23 74 23 63 35 c 128,-1,7
 52 47 52 47 52 70 c 0,8,9
 52 98 52 98 70.5 113.5 c 128,-1,10
 89 129 89 129 117 129 c 0,11,12
 148 129 148 129 171 106.5 c 128,-1,13
 194 84 194 84 194 42 c 0,14,15
 194 -22 194 -22 156.5 -75 c 128,-1,16
 119 -128 119 -128 30 -154 c 1,0,-1
EndSplineSet
EndChar

StartChar: period
Encoding: 46 46 32
Width: 250
VWidth: 1000
Flags: W
LayerCount: 2
Fore
SplineSet
125 -7 m 0,0,1
 99 -7 99 -7 80.5 8 c 128,-1,2
 62 23 62 23 62 61 c 0,3,4
 62 100 62 100 80.5 114.5 c 128,-1,5
 99 129 99 129 125 129 c 0,6,7
 150 129 150 129 169 114.5 c 128,-1,8
 188 100 188 100 188 61 c 0,9,10
 188 23 188 23 169 8 c 128,-1,11
 150 -7 150 -7 125 -7 c 0,0,1
EndSplineSet
EndChar

StartChar: exclam
Encoding: 33 33 33
Width: 332
Flags: W
LayerCount: 2
Fore
SplineSet
139 201 m 1,0,-1
 108 655 l 1,1,-1
 224 655 l 1,2,-1
 193 201 l 1,3,-1
 139 201 l 1,0,-1
166 0 m 128,-1,5
 140 0 140 0 121.5 15 c 128,-1,6
 103 30 103 30 103 68 c 0,7,8
 103 107 103 107 121.5 121.5 c 128,-1,9
 140 136 140 136 166 136 c 128,-1,10
 192 136 192 136 210.5 121.5 c 128,-1,11
 229 107 229 107 229 68 c 0,12,13
 229 30 229 30 210.5 15 c 128,-1,4
 192 0 192 0 166 0 c 128,-1,5
EndSplineSet
EndChar

StartChar: question
Encoding: 63 63 34
Width: 474
Flags: W
LayerCount: 2
Fore
SplineSet
188 198 m 1,0,-1
 185 331 l 1,1,2
 244 352 244 352 276.5 380.5 c 128,-1,3
 309 409 309 409 322.5 443 c 128,-1,4
 336 477 336 477 336 512 c 0,5,6
 336 557 336 557 310.5 584.5 c 128,-1,7
 285 612 285 612 228 612 c 0,8,9
 187 612 187 612 163 596 c 128,-1,10
 139 580 139 580 128.5 554.5 c 128,-1,11
 118 529 118 529 118 499 c 1,12,13
 83 499 83 499 60 513 c 128,-1,14
 37 527 37 527 37 554 c 0,15,16
 37 597 37 597 82 626 c 128,-1,17
 127 655 127 655 220 655 c 0,18,19
 282 655 282 655 329.5 636 c 128,-1,20
 377 617 377 617 404.5 581.5 c 128,-1,21
 432 546 432 546 432 497 c 0,22,23
 432 425 432 425 382 377.5 c 128,-1,24
 332 330 332 330 244 297 c 1,25,-1
 241 198 l 1,26,-1
 188 198 l 1,0,-1
213 0 m 0,27,28
 187 0 187 0 168.5 15 c 128,-1,29
 150 30 150 30 150 68 c 0,30,31
 150 107 150 107 168.5 121.5 c 128,-1,32
 187 136 187 136 213 136 c 0,33,34
 238 136 238 136 257 121.5 c 128,-1,35
 276 107 276 107 276 68 c 0,36,37
 276 30 276 30 257 15 c 128,-1,38
 238 0 238 0 213 0 c 0,27,28
EndSplineSet
EndChar

StartChar: equal
Encoding: 61 61 35
Width: 559
Flags: W
LayerCount: 2
Fore
SplineSet
63 362 m 1,0,-1
 63 413 l 1,1,-1
 496 413 l 1,2,-1
 496 362 l 1,3,-1
 63 362 l 1,0,-1
63 193 m 1,4,-1
 63 244 l 1,5,-1
 496 244 l 1,6,-1
 496 193 l 1,7,-1
 63 193 l 1,4,-1
EndSplineSet
EndChar

StartChar: hyphen
Encoding: 45 45 36
Width: 310
Flags: W
LayerCount: 2
Fore
SplineSet
25 235 m 1,0,-1
 25 310 l 1,1,-1
 285 310 l 1,2,-1
 285 235 l 1,3,-1
 25 235 l 1,0,-1
EndSplineSet
EndChar
